<?xml version="1.0" encoding="utf-8"?>
<svg viewBox="7.5781 118.1406 346.3091 122.1149" xmlns="http://www.w3.org/2000/svg">
  <defs>
    <clipPath id="e90700a17b">
      <path d="M 266 120.925781 L 268 120.925781 L 268 123 L 266 123 Z M 266 120.925781 " clip-rule="nonzero"/>
    </clipPath>
    <clipPath id="130fba4d76">
      <path d="M 263.65625 134.148438 L 270.195312 134.148438 L 270.195312 135.921875 L 263.65625 135.921875 Z M 263.65625 134.148438 " clip-rule="nonzero"/>
    </clipPath>
    <clipPath id="7b164e8bc6">
      <path d="M 269.675781 124.644531 L 306.277344 124.644531 L 306.277344 126.605469 L 269.675781 126.605469 Z M 269.675781 124.644531 " clip-rule="nonzero"/>
    </clipPath>
    <clipPath id="daecb370fc">
      <path d="M 269 124 L 306.339844 124 L 306.339844 127 L 269 127 Z M 269 124 " clip-rule="nonzero"/>
    </clipPath>
    <clipPath id="09ce28867b">
      <path d="M 304 133 L 305 133 L 305 135.925781 L 304 135.925781 Z M 304 133 " clip-rule="nonzero"/>
    </clipPath>
    <clipPath id="03bef6bcd9">
      <path d="M 303.617188 134.148438 L 305.488281 134.148438 L 305.488281 135.921875 L 303.617188 135.921875 Z M 303.617188 134.148438 " clip-rule="nonzero"/>
    </clipPath>
    <clipPath id="4dfd354db0">
      <path d="M 209 175.519531 L 211 175.519531 L 211 178 L 209 178 Z M 209 175.519531 " clip-rule="nonzero"/>
    </clipPath>
    <clipPath id="6ee2d90074">
      <path d="M 206.765625 188.742188 L 213.304688 188.742188 L 213.304688 190.515625 L 206.765625 190.515625 Z M 206.765625 188.742188 " clip-rule="nonzero"/>
    </clipPath>
    <clipPath id="fdc4116b22">
      <path d="M 212.785156 179.238281 L 249.386719 179.238281 L 249.386719 181.199219 L 212.785156 181.199219 Z M 212.785156 179.238281 " clip-rule="nonzero"/>
    </clipPath>
    <clipPath id="fe66e2756c">
      <path d="M 213 179 L 249.449219 179 L 249.449219 181 L 213 181 Z M 213 179 " clip-rule="nonzero"/>
    </clipPath>
    <clipPath id="2ff11bc772">
      <path d="M 246.726562 188.742188 L 248.59375 188.742188 L 248.59375 190.515625 L 246.726562 190.515625 Z M 246.726562 188.742188 " clip-rule="nonzero"/>
    </clipPath>
  </defs>
  <path stroke-linecap="butt" transform="matrix(0.75, 0, 0, 0.75, 209.94224117394992, 99.37500518281011)" fill="none" stroke-linejoin="miter" d="M 116.926009 25.03126 L 116.926009 114.64585 C 116.926009 131.703142 112.321842 144.614602 103.1083 153.390644 C 93.894757 162.135436 80.420798 166.510436 62.681214 166.510436 C 44.941629 166.510436 31.462462 162.135436 22.248919 153.390644 C 13.035377 144.614602 8.43121 131.703142 8.43121 114.64585 L 8.43121 25.03126 L 40.097879 25.03126 L 40.097879 105.390641 C 40.097879 116.609391 41.868712 124.406267 45.405171 128.796892 C 48.941629 133.182309 54.702046 135.375018 62.681214 135.375018 C 70.660381 135.375018 76.415589 133.182309 79.952048 128.796892 C 83.488507 124.406267 85.25934 116.609391 85.25934 105.390641 L 85.25934 25.03126 Z M 116.926009 25.03126 " stroke="#004aad" stroke-width="1.158197" stroke-opacity="1" stroke-miterlimit="4"/>
  <path fill="#004aad" d="M 217.125 156.652344 C 217.539062 156.714844 218.175781 156.8125 218.691406 156.890625 C 218.691406 158.175781 218.691406 159.445312 218.691406 160.660156 C 218.449219 160.828125 218.292969 161.105469 218.292969 161.421875 L 218.292969 166.648438 C 218.292969 166.960938 218.449219 167.242188 218.691406 167.410156 C 218.691406 169.011719 218.691406 170.0625 218.691406 170.253906 C 218.691406 170.539062 219.121094 170.847656 219.816406 171.152344 C 219.9375 171.449219 220.210938 171.679688 220.550781 171.722656 L 222.316406 171.964844 C 224.382812 172.488281 226.90625 172.875 228.671875 172.875 C 230.441406 172.875 232.960938 172.488281 235.027344 171.964844 L 236.796875 171.722656 C 237.136719 171.679688 237.40625 171.449219 237.527344 171.152344 C 238.222656 170.847656 238.652344 170.539062 238.652344 170.253906 C 238.652344 170.0625 238.652344 169.011719 238.652344 167.410156 C 238.894531 167.242188 239.054688 166.960938 239.054688 166.648438 L 239.054688 161.421875 C 239.054688 161.105469 238.894531 160.828125 238.652344 160.660156 C 238.652344 159.445312 238.652344 158.175781 238.652344 156.890625 C 239.167969 156.8125 239.804688 156.714844 240.21875 156.652344 C 241.011719 156.53125 241.148438 155.246094 241.148438 155.246094 L 238.652344 155.625 C 238.652344 147.867188 238.652344 139.925781 238.652344 139.925781 L 239.453125 134.925781 C 239.453125 134.925781 239.007812 126.890625 237.851562 125.28125 C 236.691406 123.675781 230.632812 123.40625 228.671875 123.40625 C 226.710938 123.40625 220.652344 123.675781 219.496094 125.28125 C 218.335938 126.890625 217.890625 134.925781 217.890625 134.925781 L 218.691406 139.925781 C 218.691406 139.925781 218.691406 147.867188 218.691406 155.625 L 216.195312 155.246094 C 216.195312 155.246094 216.332031 156.53125 217.125 156.652344 Z M 219.824219 155.195312 C 219.824219 155.195312 219.871094 150.300781 219.90625 146.144531 L 222.078125 146.144531 C 221.972656 148.851562 219.824219 155.195312 219.824219 155.195312 Z M 221.035156 158.289062 C 220.144531 157.097656 222.34375 150.730469 222.34375 150.730469 C 222.34375 150.730469 225.609375 151.5625 228.699219 151.5625 C 231.789062 151.5625 235.058594 150.730469 235.058594 150.730469 C 235.058594 150.730469 237.253906 157.097656 236.363281 158.289062 C 235.472656 159.480469 233.394531 159.777344 228.699219 159.777344 C 224.007812 159.777344 221.929688 159.480469 221.035156 158.289062 Z M 237.574219 155.195312 C 237.574219 155.195312 235.429688 148.851562 235.320312 146.144531 L 237.492188 146.144531 C 237.527344 150.300781 237.574219 155.195312 237.574219 155.195312 Z M 237.457031 140.730469 C 237.457031 141.425781 237.46875 143.277344 237.488281 145.433594 L 235.332031 145.433594 C 235.4375 142.5 235.988281 134.550781 236.269531 133.644531 C 236.566406 132.691406 237.457031 138.644531 237.457031 140.730469 Z M 222.449219 129.078125 C 223.25 128.273438 226.027344 127.601562 228.699219 127.601562 C 231.375 127.601562 234.152344 128.273438 234.953125 129.078125 C 235.753906 129.878906 234.996094 135.105469 234.996094 135.105469 C 234.996094 135.105469 230.882812 134.253906 228.699219 134.253906 C 226.515625 134.253906 222.402344 135.105469 222.402344 135.105469 C 222.402344 135.105469 221.644531 129.878906 222.449219 129.078125 Z M 221.132812 133.644531 C 221.414062 134.550781 221.964844 142.5 222.070312 145.433594 L 219.914062 145.433594 C 219.929688 143.277344 219.945312 141.425781 219.945312 140.730469 C 219.945312 138.644531 220.835938 132.691406 221.132812 133.644531 Z M 221.132812 133.644531 " fill-opacity="1" fill-rule="nonzero"/>
  <path fill="#004aad" d="M 230.101562 156.421875 L 229.945312 156.574219 L 227.492188 154.113281 L 227.644531 153.960938 Z M 230.101562 156.421875 " fill-opacity="1" fill-rule="nonzero"/>
  <path fill="#004aad" d="M 229.417969 157.105469 L 229.261719 157.261719 L 226.804688 154.800781 L 226.960938 154.644531 Z M 229.417969 157.105469 " fill-opacity="1" fill-rule="nonzero"/>
  <path fill="#004aad" d="M 231.078125 158.085938 L 230.925781 158.242188 L 225.828125 153.136719 L 225.984375 152.980469 Z M 231.078125 158.085938 " fill-opacity="1" fill-rule="nonzero"/>
  <path fill="#004aad" d="M 230.101562 131.894531 L 229.945312 132.050781 L 227.492188 129.589844 L 227.644531 129.433594 Z M 230.101562 131.894531 " fill-opacity="1" fill-rule="nonzero"/>
  <path fill="#004aad" d="M 229.417969 132.582031 L 229.261719 132.734375 L 226.804688 130.273438 L 226.960938 130.121094 Z M 229.417969 132.582031 " fill-opacity="1" fill-rule="nonzero"/>
  <path fill="#004aad" d="M 231.078125 133.5625 L 230.925781 133.714844 L 225.828125 128.609375 L 225.984375 128.457031 Z M 231.078125 133.5625 " fill-opacity="1" fill-rule="nonzero"/>
  <path fill="#004aad" d="M 265.054688 122.746094 L 264.625 122.746094 C 264.507812 122.746094 264.410156 122.648438 264.410156 122.53125 L 264.410156 121.996094 L 264.195312 121.996094 L 264.195312 122.53125 C 264.195312 122.769531 264.386719 122.960938 264.625 122.960938 L 265.054688 122.960938 L 265.054688 122.746094 " fill-opacity="1" fill-rule="evenodd"/>
  <path fill="#004aad" d="M 264.300781 121.78125 C 264.183594 121.78125 264.085938 121.878906 264.085938 121.996094 C 264.085938 122.113281 264.183594 122.210938 264.300781 122.210938 C 264.421875 122.210938 264.515625 122.113281 264.515625 121.996094 C 264.515625 121.878906 264.421875 121.78125 264.300781 121.78125 " fill-opacity="1" fill-rule="nonzero"/>
  <g clip-path="url(#e90700a17b)">
    <path fill="#ffffff" d="M 266.886719 120.925781 C 266.527344 120.925781 266.238281 121.210938 266.238281 121.566406 L 266.238281 121.996094 C 266.238281 122.351562 266.527344 122.636719 266.886719 122.636719 C 267.242188 122.636719 267.53125 122.351562 267.53125 121.996094 L 267.53125 121.566406 C 267.53125 121.210938 267.242188 120.925781 266.886719 120.925781 " fill-opacity="1" fill-rule="nonzero"/>
    <path fill="#004aad" d="M 266.886719 122.425781 C 266.683594 122.425781 266.519531 122.285156 266.46875 122.101562 L 267.300781 122.101562 C 267.253906 122.285156 267.085938 122.425781 266.886719 122.425781 Z M 266.886719 121.136719 C 267.121094 121.136719 267.316406 121.332031 267.316406 121.566406 L 267.316406 121.78125 L 266.453125 121.78125 L 266.453125 121.566406 C 266.453125 121.332031 266.648438 121.136719 266.886719 121.136719 Z M 266.886719 120.925781 C 266.527344 120.925781 266.238281 121.210938 266.238281 121.566406 L 266.238281 121.996094 C 266.238281 122.351562 266.527344 122.636719 266.886719 122.636719 C 267.242188 122.636719 267.53125 122.351562 267.53125 121.996094 L 267.53125 121.566406 C 267.53125 121.210938 267.242188 120.925781 266.886719 120.925781 " fill-opacity="1" fill-rule="evenodd"/>
  </g>
  <path fill="#004aad" d="M 267.636719 121.996094 L 266.132812 121.996094 C 266.070312 121.996094 266.023438 122.042969 266.023438 122.101562 L 266.023438 122.636719 C 266.023438 122.695312 266.070312 122.746094 266.132812 122.746094 L 267.636719 122.746094 C 267.699219 122.746094 267.746094 122.695312 267.746094 122.636719 L 267.746094 122.101562 C 267.746094 122.042969 267.699219 121.996094 267.636719 121.996094 " fill-opacity="1" fill-rule="nonzero"/>
  <g clip-path="url(#130fba4d76)">
    <path fill="#ffffff" d="M 269.683594 134.207031 L 264.085938 134.207031 C 263.847656 134.207031 263.65625 134.398438 263.65625 134.636719 L 263.65625 135.492188 C 263.65625 135.730469 263.847656 135.921875 264.085938 135.921875 L 269.683594 135.921875 C 269.921875 135.921875 270.113281 135.730469 270.113281 135.492188 L 270.113281 134.636719 C 270.113281 134.398438 269.921875 134.207031 269.683594 134.207031 " fill-opacity="1" fill-rule="nonzero"/>
    <path fill="#004aad" d="M 269.898438 135.492188 C 269.898438 135.609375 269.800781 135.707031 269.683594 135.707031 L 264.085938 135.707031 C 263.96875 135.707031 263.871094 135.609375 263.871094 135.492188 L 263.871094 134.636719 C 263.871094 134.519531 263.96875 134.421875 264.085938 134.421875 L 269.683594 134.421875 C 269.800781 134.421875 269.898438 134.519531 269.898438 134.636719 Z M 269.683594 134.207031 L 264.085938 134.207031 C 263.847656 134.207031 263.65625 134.398438 263.65625 134.636719 L 263.65625 135.492188 C 263.65625 135.730469 263.847656 135.921875 264.085938 135.921875 L 269.683594 135.921875 C 269.921875 135.921875 270.113281 135.730469 270.113281 135.492188 L 270.113281 134.636719 C 270.113281 134.398438 269.921875 134.207031 269.683594 134.207031 " fill-opacity="1" fill-rule="evenodd"/>
  </g>
  <path fill="#ffffff" d="M 264.949219 132.066406 L 264.949219 133.671875 L 268.824219 133.671875 L 268.824219 132.066406 L 264.949219 132.066406 " fill-opacity="1" fill-rule="nonzero"/>
  <path fill="#004aad" d="M 268.605469 133.136719 L 265.164062 133.136719 L 265.164062 132.707031 L 268.605469 132.707031 Z M 264.949219 132.066406 L 264.949219 133.671875 L 268.824219 133.671875 L 268.824219 132.066406 L 264.949219 132.066406 " fill-opacity="1" fill-rule="evenodd"/>
  <path fill="#ffffff" d="M 268.390625 123.496094 L 265.378906 123.496094 C 265.140625 123.496094 264.949219 123.6875 264.949219 123.921875 L 264.949219 131.207031 C 264.949219 131.445312 265.140625 131.636719 265.378906 131.636719 L 268.390625 131.636719 C 268.628906 131.636719 268.824219 131.445312 268.824219 131.207031 L 268.824219 123.921875 C 268.824219 123.6875 268.628906 123.496094 268.390625 123.496094 " fill-opacity="1" fill-rule="nonzero"/>
  <path fill="#004aad" d="M 268.605469 131.207031 C 268.605469 131.324219 268.511719 131.421875 268.390625 131.421875 L 265.378906 131.421875 C 265.257812 131.421875 265.164062 131.324219 265.164062 131.207031 L 265.164062 123.921875 C 265.164062 123.804688 265.257812 123.710938 265.378906 123.710938 L 268.390625 123.710938 C 268.511719 123.710938 268.605469 123.804688 268.605469 123.921875 Z M 268.390625 123.496094 L 265.378906 123.496094 C 265.140625 123.496094 264.949219 123.6875 264.949219 123.921875 L 264.949219 131.207031 C 264.949219 131.445312 265.140625 131.636719 265.378906 131.636719 L 268.390625 131.636719 C 268.628906 131.636719 268.824219 131.445312 268.824219 131.207031 L 268.824219 123.921875 C 268.824219 123.6875 268.628906 123.496094 268.390625 123.496094 " fill-opacity="1" fill-rule="evenodd"/>
  <path fill="#004aad" d="M 268.390625 122.210938 L 265.378906 122.210938 C 265.140625 122.210938 264.949219 122.402344 264.949219 122.636719 L 264.949219 123.066406 C 264.949219 123.304688 265.140625 123.496094 265.378906 123.496094 L 268.390625 123.496094 C 268.628906 123.496094 268.824219 123.304688 268.824219 123.066406 L 268.824219 122.636719 C 268.824219 122.402344 268.628906 122.210938 268.390625 122.210938 " fill-opacity="1" fill-rule="nonzero"/>
  <path fill="#004aad" d="M 268.824219 133.351562 L 264.949219 133.351562 C 264.710938 133.351562 264.515625 133.542969 264.515625 133.777344 C 264.515625 134.015625 264.710938 134.207031 264.949219 134.207031 L 268.824219 134.207031 C 269.058594 134.207031 269.253906 134.015625 269.253906 133.777344 C 269.253906 133.542969 269.058594 133.351562 268.824219 133.351562 Z M 264.949219 132.492188 L 268.824219 132.492188 C 269.058594 132.492188 269.253906 132.300781 269.253906 132.066406 C 269.253906 131.828125 269.058594 131.636719 268.824219 131.636719 L 264.949219 131.636719 C 264.710938 131.636719 264.515625 131.828125 264.515625 132.066406 C 264.515625 132.300781 264.710938 132.492188 264.949219 132.492188 " fill-opacity="1" fill-rule="evenodd"/>
  <path fill="#ffffff" d="M 269.46875 124.671875 L 266.453125 124.671875 C 266.335938 124.671875 266.238281 124.769531 266.238281 124.886719 L 266.238281 126.386719 C 266.238281 126.503906 266.335938 126.601562 266.453125 126.601562 L 269.46875 126.601562 C 269.585938 126.601562 269.683594 126.503906 269.683594 126.386719 L 269.683594 124.886719 C 269.683594 124.769531 269.585938 124.671875 269.46875 124.671875 " fill-opacity="1" fill-rule="nonzero"/>
  <g clip-path="url(#7b164e8bc6)">
    <path fill="#ffffff" d="M 306.171875 124.671875 L 269.792969 124.671875 C 269.730469 124.671875 269.683594 124.722656 269.683594 124.78125 L 269.683594 126.496094 C 269.683594 126.554688 269.730469 126.601562 269.792969 126.601562 L 306.171875 126.601562 C 306.230469 126.601562 306.277344 126.554688 306.277344 126.496094 L 306.277344 124.78125 C 306.277344 124.722656 306.230469 124.671875 306.171875 124.671875 " fill-opacity="1" fill-rule="nonzero"/>
    <path fill="#004aad" d="M 306.0625 126.386719 L 269.898438 126.386719 L 269.898438 124.886719 L 306.0625 124.886719 Z M 306.171875 124.671875 L 269.792969 124.671875 C 269.730469 124.671875 269.683594 124.722656 269.683594 124.78125 L 269.683594 126.496094 C 269.683594 126.554688 269.730469 126.601562 269.792969 126.601562 L 306.171875 126.601562 C 306.230469 126.601562 306.277344 126.554688 306.277344 126.496094 L 306.277344 124.78125 C 306.277344 124.722656 306.230469 124.671875 306.171875 124.671875 " fill-opacity="1" fill-rule="evenodd"/>
  </g>
  <g clip-path="url(#daecb370fc)">
    <path fill="#004aad" d="M 285.503906 124.886719 L 284 126.386719 L 285.289062 126.386719 L 286.796875 124.886719 Z M 295.839844 124.886719 L 294.332031 126.386719 L 295.625 126.386719 L 297.128906 124.886719 Z M 288.089844 124.886719 L 286.582031 126.386719 L 287.875 126.386719 L 289.378906 124.886719 Z M 293.253906 124.886719 L 291.75 126.386719 L 293.039062 126.386719 L 294.546875 124.886719 Z M 304.664062 126.386719 L 306.0625 126.386719 L 306.0625 124.996094 Z M 301.003906 124.886719 L 299.5 126.386719 L 300.789062 126.386719 L 302.296875 124.886719 Z M 298.421875 124.886719 L 296.914062 126.386719 L 298.207031 126.386719 L 299.714844 124.886719 Z M 290.671875 124.886719 L 289.164062 126.386719 L 290.457031 126.386719 L 291.964844 124.886719 Z M 272.589844 124.886719 L 271.082031 126.386719 L 272.375 126.386719 L 273.882812 124.886719 Z M 269.898438 124.886719 L 269.898438 126.28125 L 271.296875 124.886719 Z M 303.589844 124.886719 L 302.082031 126.386719 L 303.375 126.386719 L 304.878906 124.886719 Z M 275.171875 124.886719 L 273.667969 126.386719 L 274.957031 126.386719 L 276.464844 124.886719 Z M 280.339844 124.886719 L 278.832031 126.386719 L 280.125 126.386719 L 281.632812 124.886719 Z M 282.921875 124.886719 L 281.414062 126.386719 L 282.707031 126.386719 L 284.214844 124.886719 Z M 277.757812 124.886719 L 276.25 126.386719 L 277.539062 126.386719 L 279.046875 124.886719 L 277.757812 124.886719 " fill-opacity="1" fill-rule="evenodd"/>
  </g>
  <path fill="#004aad" d="M 269.46875 126.386719 L 268.1875 126.386719 C 268.316406 126.167969 268.390625 125.910156 268.390625 125.636719 C 268.390625 125.363281 268.316406 125.109375 268.1875 124.886719 L 269.46875 124.886719 Z M 269.46875 124.671875 L 266.453125 124.671875 C 266.335938 124.671875 266.238281 124.769531 266.238281 124.886719 L 266.238281 126.386719 C 266.238281 126.503906 266.335938 126.601562 266.453125 126.601562 L 269.46875 126.601562 C 269.585938 126.601562 269.683594 126.503906 269.683594 126.386719 L 269.683594 124.886719 C 269.683594 124.769531 269.585938 124.671875 269.46875 124.671875 " fill-opacity="1" fill-rule="evenodd"/>
  <path fill="#ffffff" d="M 266.886719 124.351562 C 266.171875 124.351562 265.59375 124.925781 265.59375 125.636719 C 265.59375 126.347656 266.171875 126.921875 266.886719 126.921875 C 267.597656 126.921875 268.175781 126.347656 268.175781 125.636719 C 268.175781 124.925781 267.597656 124.351562 266.886719 124.351562 " fill-opacity="1" fill-rule="nonzero"/>
  <path fill="#004aad" d="M 266.886719 124.996094 C 266.527344 124.996094 266.238281 125.28125 266.238281 125.636719 C 266.238281 125.992188 266.527344 126.28125 266.886719 126.28125 C 267.242188 126.28125 267.53125 125.992188 267.53125 125.636719 C 267.53125 125.28125 267.242188 124.996094 266.886719 124.996094 Z M 266.886719 126.707031 C 266.289062 126.707031 265.808594 126.230469 265.808594 125.636719 C 265.808594 125.046875 266.289062 124.566406 266.886719 124.566406 C 267.480469 124.566406 267.960938 125.046875 267.960938 125.636719 C 267.960938 126.230469 267.480469 126.707031 266.886719 126.707031 Z M 266.886719 124.351562 C 266.171875 124.351562 265.59375 124.925781 265.59375 125.636719 C 265.59375 126.347656 266.171875 126.921875 266.886719 126.921875 C 267.597656 126.921875 268.175781 126.347656 268.175781 125.636719 C 268.175781 124.925781 267.597656 124.351562 266.886719 124.351562 " fill-opacity="1" fill-rule="evenodd"/>
  <path fill="#ffffff" d="M 266.886719 125.210938 C 266.648438 125.210938 266.453125 125.402344 266.453125 125.636719 C 266.453125 125.875 266.648438 126.066406 266.886719 126.066406 C 267.121094 126.066406 267.316406 125.875 267.316406 125.636719 C 267.316406 125.402344 267.121094 125.210938 266.886719 125.210938 " fill-opacity="1" fill-rule="nonzero"/>
  <path fill="#004aad" d="M 304.34375 126.496094 L 304.34375 134.636719 L 304.773438 134.636719 L 304.773438 126.496094 L 304.34375 126.496094 " fill-opacity="1" fill-rule="nonzero"/>
  <g clip-path="url(#09ce28867b)">
    <path fill="#ffffff" d="M 304.558594 133.351562 C 304.320312 133.351562 304.125 133.542969 304.125 133.777344 L 304.125 134.636719 C 304.125 134.871094 304.320312 135.0625 304.558594 135.0625 C 304.792969 135.0625 304.988281 134.871094 304.988281 134.636719 L 304.988281 133.777344 C 304.988281 133.542969 304.792969 133.351562 304.558594 133.351562 " fill-opacity="1" fill-rule="nonzero"/>
    <path fill="#004aad" d="M 304.558594 133.566406 C 304.675781 133.566406 304.773438 133.660156 304.773438 133.777344 L 304.773438 133.992188 L 304.34375 133.992188 L 304.34375 133.777344 C 304.34375 133.660156 304.4375 133.566406 304.558594 133.566406 Z M 304.558594 133.351562 C 304.320312 133.351562 304.125 133.542969 304.125 133.777344 L 304.125 134.636719 C 304.125 134.871094 304.320312 135.0625 304.558594 135.0625 C 304.792969 135.0625 304.988281 134.871094 304.988281 134.636719 L 304.988281 133.777344 C 304.988281 133.542969 304.792969 133.351562 304.558594 133.351562 " fill-opacity="1" fill-rule="evenodd"/>
  </g>
  <g clip-path="url(#03bef6bcd9)">
    <path fill="#ffffff" d="M 304.988281 134.207031 L 304.125 134.207031 C 303.890625 134.207031 303.695312 134.398438 303.695312 134.636719 L 303.695312 135.492188 C 303.695312 135.730469 303.890625 135.921875 304.125 135.921875 L 304.988281 135.921875 C 305.226562 135.921875 305.417969 135.730469 305.417969 135.492188 L 305.417969 134.636719 C 305.417969 134.398438 305.226562 134.207031 304.988281 134.207031 " fill-opacity="1" fill-rule="nonzero"/>
    <path fill="#004aad" d="M 305.203125 135.492188 C 305.203125 135.609375 305.105469 135.707031 304.988281 135.707031 L 304.125 135.707031 C 304.007812 135.707031 303.910156 135.609375 303.910156 135.492188 L 303.910156 134.636719 C 303.910156 134.519531 304.007812 134.421875 304.125 134.421875 L 304.988281 134.421875 C 305.105469 134.421875 305.203125 134.519531 305.203125 134.636719 Z M 304.988281 134.207031 L 304.125 134.207031 C 303.890625 134.207031 303.695312 134.398438 303.695312 134.636719 L 303.695312 135.492188 C 303.695312 135.730469 303.890625 135.921875 304.125 135.921875 L 304.988281 135.921875 C 305.226562 135.921875 305.417969 135.730469 305.417969 135.492188 L 305.417969 134.636719 C 305.417969 134.398438 305.226562 134.207031 304.988281 134.207031 " fill-opacity="1" fill-rule="evenodd"/>
  </g>
  <path fill="#ffffff" d="M 304.773438 125.421875 L 304.34375 125.421875 C 304.105469 125.421875 303.910156 125.613281 303.910156 125.851562 L 303.910156 126.496094 C 303.910156 126.730469 304.105469 126.921875 304.34375 126.921875 L 304.773438 126.921875 C 305.011719 126.921875 305.203125 126.730469 305.203125 126.496094 L 305.203125 125.851562 C 305.203125 125.613281 305.011719 125.421875 304.773438 125.421875 " fill-opacity="1" fill-rule="nonzero"/>
  <path fill="#004aad" d="M 304.988281 126.496094 C 304.988281 126.613281 304.890625 126.707031 304.773438 126.707031 L 304.34375 126.707031 C 304.222656 126.707031 304.125 126.613281 304.125 126.496094 L 304.125 125.851562 C 304.125 125.734375 304.222656 125.636719 304.34375 125.636719 L 304.773438 125.636719 C 304.890625 125.636719 304.988281 125.734375 304.988281 125.851562 Z M 304.773438 125.421875 L 304.34375 125.421875 C 304.105469 125.421875 303.910156 125.613281 303.910156 125.851562 L 303.910156 126.496094 C 303.910156 126.730469 304.105469 126.921875 304.34375 126.921875 L 304.773438 126.921875 C 305.011719 126.921875 305.203125 126.730469 305.203125 126.496094 L 305.203125 125.851562 C 305.203125 125.613281 305.011719 125.421875 304.773438 125.421875 " fill-opacity="1" fill-rule="evenodd"/>
  <g fill="#004aad" fill-opacity="1">
    <g transform="translate(0.0000045, 222.374985)">
      <g>
        <path d="M 7.578125 -104.234375 L 45.609375 -104.234375 C 56.222656 -104.234375 64.8125 -101.492188 71.375 -96.015625 C 77.945312 -90.546875 81.234375 -82.585938 81.234375 -72.140625 C 81.234375 -61.691406 77.90625 -53.5 71.25 -47.5625 C 64.601562 -41.625 56.054688 -38.65625 45.609375 -38.65625 L 31.328125 -38.65625 L 31.328125 0 L 7.578125 0 Z M 31.328125 -57.609375 L 38.03125 -57.609375 C 43.332031 -57.609375 47.6875 -58.679688 51.09375 -60.828125 C 54.507812 -62.984375 56.21875 -66.503906 56.21875 -71.390625 C 56.21875 -76.359375 54.507812 -79.914062 51.09375 -82.0625 C 47.6875 -84.207031 43.332031 -85.28125 38.03125 -85.28125 L 31.328125 -85.28125 Z M 31.328125 -57.609375 "/>
      </g>
    </g>
  </g>
  <g fill="#004aad" fill-opacity="1">
    <g transform="translate(65.24289, 220.552378)">
      <g>
        <path d="M 7.203125 -4.8125 C 3.566406 -8.78125 1.75 -13.644531 1.75 -19.40625 C 1.75 -25.164062 3.566406 -30.039062 7.203125 -34.03125 C 10.835938 -38.019531 15.457031 -40.015625 21.0625 -40.015625 C 26.21875 -40.015625 30.460938 -38.394531 33.796875 -35.15625 L 33.796875 -38.875 L 47.21875 -38.875 L 47.21875 0 L 33.953125 0 L 33.953125 -4.390625 L 33.796875 -4.390625 C 30.460938 -0.703125 26.21875 1.140625 21.0625 1.140625 C 15.457031 1.140625 10.835938 -0.84375 7.203125 -4.8125 Z M 18.59375 -25.984375 C 16.851562 -24.273438 15.984375 -22.082031 15.984375 -19.40625 C 15.984375 -16.726562 16.816406 -14.539062 18.484375 -12.84375 C 20.148438 -11.15625 22.347656 -10.3125 25.078125 -10.3125 C 27.710938 -10.3125 29.875 -11.164062 31.5625 -12.875 C 33.257812 -14.59375 34.109375 -16.769531 34.109375 -19.40625 C 34.109375 -22.082031 33.234375 -24.273438 31.484375 -25.984375 C 29.742188 -27.703125 27.609375 -28.5625 25.078125 -28.5625 C 22.503906 -28.5625 20.34375 -27.703125 18.59375 -25.984375 Z M 18.59375 -25.984375 "/>
      </g>
    </g>
  </g>
  <g fill="#004aad" fill-opacity="1">
    <g transform="translate(116.997424, 220.552378)">
      <g>
        <path d="M 4.546875 0 L 4.546875 -38.875 L 17.953125 -38.875 L 17.953125 -33.265625 L 18.109375 -33.265625 C 18.210938 -33.472656 18.378906 -33.726562 18.609375 -34.03125 C 18.835938 -34.332031 19.328125 -34.859375 20.078125 -35.609375 C 20.835938 -36.367188 21.644531 -37.050781 22.5 -37.65625 C 23.363281 -38.269531 24.476562 -38.816406 25.84375 -39.296875 C 27.207031 -39.773438 28.597656 -40.015625 30.015625 -40.015625 C 31.472656 -40.015625 32.910156 -39.8125 34.328125 -39.40625 C 35.742188 -39 36.78125 -38.59375 37.4375 -38.1875 L 38.5 -37.59375 L 32.890625 -26.21875 C 31.222656 -27.632812 28.898438 -28.34375 25.921875 -28.34375 C 24.304688 -28.34375 22.914062 -27.988281 21.75 -27.28125 C 20.582031 -26.570312 19.757812 -25.710938 19.28125 -24.703125 C 18.800781 -23.691406 18.457031 -22.832031 18.25 -22.125 C 18.050781 -21.414062 17.953125 -20.863281 17.953125 -20.46875 L 17.953125 0 Z M 4.546875 0 "/>
      </g>
    </g>
  </g>
  <g fill="#004aad" fill-opacity="1">
    <g transform="translate(154.733527, 220.552378)">
      <g>
        <path d="M 48.953125 -38.875 L 30.46875 -20.3125 L 50.78125 0 L 33.5 0 L 17.953125 -15.53125 L 17.953125 0 L 4.546875 0 L 4.546875 -65.171875 L 17.953125 -65.171875 L 17.953125 -25.3125 L 31.53125 -38.875 Z M 48.953125 -38.875 "/>
      </g>
    </g>
  </g>
  <g fill="#004aad" fill-opacity="1">
    <g transform="translate(303.871613, 220.552378)">
      <g>
        <path d="M 44.5625 -34.0625 C 48.195312 -30.09375 50.015625 -25.226562 50.015625 -19.46875 C 50.015625 -13.71875 48.195312 -8.84375 44.5625 -4.84375 C 40.925781 -0.851562 36.300781 1.140625 30.6875 1.140625 C 25.539062 1.140625 21.296875 -0.476562 17.953125 -3.71875 L 17.953125 19.703125 L 4.546875 19.703125 L 4.546875 -38.875 L 17.8125 -38.875 L 17.8125 -34.484375 L 17.953125 -34.484375 C 21.296875 -38.171875 25.539062 -40.015625 30.6875 -40.015625 C 36.300781 -40.015625 40.925781 -38.03125 44.5625 -34.0625 Z M 33.15625 -12.875 C 34.894531 -14.59375 35.765625 -16.789062 35.765625 -19.46875 C 35.765625 -22.15625 34.929688 -24.34375 33.265625 -26.03125 C 31.597656 -27.71875 29.398438 -28.5625 26.671875 -28.5625 C 24.046875 -28.5625 21.882812 -27.703125 20.1875 -25.984375 C 18.5 -24.273438 17.65625 -22.101562 17.65625 -19.46875 C 17.65625 -16.789062 18.523438 -14.59375 20.265625 -12.875 C 22.015625 -11.164062 24.148438 -10.3125 26.671875 -10.3125 C 29.253906 -10.3125 31.414062 -11.164062 33.15625 -12.875 Z M 33.15625 -12.875 "/>
      </g>
    </g>
  </g>
  <path fill="#004aad" d="M 208.164062 177.339844 L 207.730469 177.339844 C 207.613281 177.339844 207.515625 177.242188 207.515625 177.125 L 207.515625 176.589844 L 207.300781 176.589844 L 207.300781 177.125 C 207.300781 177.363281 207.496094 177.554688 207.730469 177.554688 L 208.164062 177.554688 L 208.164062 177.339844 " fill-opacity="1" fill-rule="evenodd"/>
  <path fill="#004aad" d="M 207.410156 176.375 C 207.289062 176.375 207.195312 176.472656 207.195312 176.589844 C 207.195312 176.707031 207.289062 176.804688 207.410156 176.804688 C 207.527344 176.804688 207.625 176.707031 207.625 176.589844 C 207.625 176.472656 207.527344 176.375 207.410156 176.375 " fill-opacity="1" fill-rule="nonzero"/>
  <g clip-path="url(#4dfd354db0)">
    <path fill="#ffffff" d="M 209.992188 175.519531 C 209.636719 175.519531 209.347656 175.804688 209.347656 176.160156 L 209.347656 176.589844 C 209.347656 176.945312 209.636719 177.234375 209.992188 177.234375 C 210.347656 177.234375 210.640625 176.945312 210.640625 176.589844 L 210.640625 176.160156 C 210.640625 175.804688 210.347656 175.519531 209.992188 175.519531 " fill-opacity="1" fill-rule="nonzero"/>
    <path fill="#004aad" d="M 209.992188 177.019531 C 209.792969 177.019531 209.625 176.882812 209.578125 176.695312 L 210.40625 176.695312 C 210.359375 176.882812 210.191406 177.019531 209.992188 177.019531 Z M 209.992188 175.734375 C 210.230469 175.734375 210.421875 175.925781 210.421875 176.160156 L 210.421875 176.375 L 209.5625 176.375 L 209.5625 176.160156 C 209.5625 175.925781 209.753906 175.734375 209.992188 175.734375 Z M 209.992188 175.519531 C 209.636719 175.519531 209.347656 175.804688 209.347656 176.160156 L 209.347656 176.589844 C 209.347656 176.945312 209.636719 177.234375 209.992188 177.234375 C 210.347656 177.234375 210.640625 176.945312 210.640625 176.589844 L 210.640625 176.160156 C 210.640625 175.804688 210.347656 175.519531 209.992188 175.519531 " fill-opacity="1" fill-rule="evenodd"/>
  </g>
  <path fill="#004aad" d="M 210.746094 176.589844 L 209.238281 176.589844 C 209.179688 176.589844 209.132812 176.636719 209.132812 176.695312 L 209.132812 177.234375 C 209.132812 177.292969 209.179688 177.339844 209.238281 177.339844 L 210.746094 177.339844 C 210.804688 177.339844 210.855469 177.292969 210.855469 177.234375 L 210.855469 176.695312 C 210.855469 176.636719 210.804688 176.589844 210.746094 176.589844 " fill-opacity="1" fill-rule="nonzero"/>
  <g clip-path="url(#6ee2d90074)">
    <path fill="#ffffff" d="M 212.792969 188.800781 L 207.195312 188.800781 C 206.957031 188.800781 206.765625 188.992188 206.765625 189.230469 L 206.765625 190.085938 C 206.765625 190.324219 206.957031 190.515625 207.195312 190.515625 L 212.792969 190.515625 C 213.027344 190.515625 213.222656 190.324219 213.222656 190.085938 L 213.222656 189.230469 C 213.222656 188.992188 213.027344 188.800781 212.792969 188.800781 " fill-opacity="1" fill-rule="nonzero"/>
    <path fill="#004aad" d="M 213.007812 190.085938 C 213.007812 190.207031 212.910156 190.300781 212.792969 190.300781 L 207.195312 190.300781 C 207.074219 190.300781 206.980469 190.207031 206.980469 190.085938 L 206.980469 189.230469 C 206.980469 189.113281 207.074219 189.015625 207.195312 189.015625 L 212.792969 189.015625 C 212.910156 189.015625 213.007812 189.113281 213.007812 189.230469 Z M 212.792969 188.800781 L 207.195312 188.800781 C 206.957031 188.800781 206.765625 188.992188 206.765625 189.230469 L 206.765625 190.085938 C 206.765625 190.324219 206.957031 190.515625 207.195312 190.515625 L 212.792969 190.515625 C 213.027344 190.515625 213.222656 190.324219 213.222656 190.085938 L 213.222656 189.230469 C 213.222656 188.992188 213.027344 188.800781 212.792969 188.800781 " fill-opacity="1" fill-rule="evenodd"/>
  </g>
  <path fill="#ffffff" d="M 208.054688 186.660156 L 208.054688 188.265625 L 211.929688 188.265625 L 211.929688 186.660156 L 208.054688 186.660156 " fill-opacity="1" fill-rule="nonzero"/>
  <path fill="#004aad" d="M 211.714844 187.730469 L 208.269531 187.730469 L 208.269531 187.300781 L 211.714844 187.300781 Z M 208.054688 186.660156 L 208.054688 188.265625 L 211.929688 188.265625 L 211.929688 186.660156 L 208.054688 186.660156 " fill-opacity="1" fill-rule="evenodd"/>
  <path fill="#ffffff" d="M 211.5 178.089844 L 208.484375 178.089844 C 208.25 178.089844 208.054688 178.28125 208.054688 178.519531 L 208.054688 185.800781 C 208.054688 186.039062 208.25 186.230469 208.484375 186.230469 L 211.5 186.230469 C 211.738281 186.230469 211.929688 186.039062 211.929688 185.800781 L 211.929688 178.519531 C 211.929688 178.28125 211.738281 178.089844 211.5 178.089844 " fill-opacity="1" fill-rule="nonzero"/>
  <path fill="#004aad" d="M 211.714844 185.800781 C 211.714844 185.921875 211.617188 186.015625 211.5 186.015625 L 208.484375 186.015625 C 208.367188 186.015625 208.269531 185.921875 208.269531 185.800781 L 208.269531 178.519531 C 208.269531 178.398438 208.367188 178.304688 208.484375 178.304688 L 211.5 178.304688 C 211.617188 178.304688 211.714844 178.398438 211.714844 178.519531 Z M 211.5 178.089844 L 208.484375 178.089844 C 208.25 178.089844 208.054688 178.28125 208.054688 178.519531 L 208.054688 185.800781 C 208.054688 186.039062 208.25 186.230469 208.484375 186.230469 L 211.5 186.230469 C 211.738281 186.230469 211.929688 186.039062 211.929688 185.800781 L 211.929688 178.519531 C 211.929688 178.28125 211.738281 178.089844 211.5 178.089844 " fill-opacity="1" fill-rule="evenodd"/>
  <path fill="#004aad" d="M 211.5 176.804688 L 208.484375 176.804688 C 208.25 176.804688 208.054688 176.996094 208.054688 177.234375 L 208.054688 177.660156 C 208.054688 177.898438 208.25 178.089844 208.484375 178.089844 L 211.5 178.089844 C 211.738281 178.089844 211.929688 177.898438 211.929688 177.660156 L 211.929688 177.234375 C 211.929688 176.996094 211.738281 176.804688 211.5 176.804688 " fill-opacity="1" fill-rule="nonzero"/>
  <path fill="#004aad" d="M 211.929688 187.945312 L 208.054688 187.945312 C 207.816406 187.945312 207.625 188.136719 207.625 188.375 C 207.625 188.609375 207.816406 188.800781 208.054688 188.800781 L 211.929688 188.800781 C 212.167969 188.800781 212.359375 188.609375 212.359375 188.375 C 212.359375 188.136719 212.167969 187.945312 211.929688 187.945312 Z M 208.054688 187.089844 L 211.929688 187.089844 C 212.167969 187.089844 212.359375 186.894531 212.359375 186.660156 C 212.359375 186.421875 212.167969 186.230469 211.929688 186.230469 L 208.054688 186.230469 C 207.816406 186.230469 207.625 186.421875 207.625 186.660156 C 207.625 186.894531 207.816406 187.089844 208.054688 187.089844 " fill-opacity="1" fill-rule="evenodd"/>
  <path fill="#ffffff" d="M 212.574219 179.269531 L 209.5625 179.269531 C 209.445312 179.269531 209.347656 179.363281 209.347656 179.480469 L 209.347656 180.980469 C 209.347656 181.101562 209.445312 181.195312 209.5625 181.195312 L 212.574219 181.195312 C 212.695312 181.195312 212.792969 181.101562 212.792969 180.980469 L 212.792969 179.480469 C 212.792969 179.363281 212.695312 179.269531 212.574219 179.269531 " fill-opacity="1" fill-rule="nonzero"/>
  <g clip-path="url(#fdc4116b22)">
    <path fill="#ffffff" d="M 249.28125 179.269531 L 212.898438 179.269531 C 212.839844 179.269531 212.792969 179.316406 212.792969 179.375 L 212.792969 181.089844 C 212.792969 181.148438 212.839844 181.195312 212.898438 181.195312 L 249.28125 181.195312 C 249.339844 181.195312 249.386719 181.148438 249.386719 181.089844 L 249.386719 179.375 C 249.386719 179.316406 249.339844 179.269531 249.28125 179.269531 " fill-opacity="1" fill-rule="nonzero"/>
    <path fill="#004aad" d="M 249.171875 180.980469 L 213.007812 180.980469 L 213.007812 179.480469 L 249.171875 179.480469 Z M 249.28125 179.269531 L 212.898438 179.269531 C 212.839844 179.269531 212.792969 179.316406 212.792969 179.375 L 212.792969 181.089844 C 212.792969 181.148438 212.839844 181.195312 212.898438 181.195312 L 249.28125 181.195312 C 249.339844 181.195312 249.386719 181.148438 249.386719 181.089844 L 249.386719 179.375 C 249.386719 179.316406 249.339844 179.269531 249.28125 179.269531 " fill-opacity="1" fill-rule="evenodd"/>
  </g>
  <g clip-path="url(#fe66e2756c)">
    <path fill="#004aad" d="M 228.613281 179.480469 L 227.105469 180.980469 L 228.398438 180.980469 L 229.90625 179.480469 Z M 238.945312 179.480469 L 237.441406 180.980469 L 238.730469 180.980469 L 240.238281 179.480469 Z M 231.195312 179.480469 L 229.691406 180.980469 L 230.980469 180.980469 L 232.488281 179.480469 Z M 236.363281 179.480469 L 234.855469 180.980469 L 236.148438 180.980469 L 237.65625 179.480469 Z M 247.773438 180.980469 L 249.171875 180.980469 L 249.171875 179.589844 Z M 244.113281 179.480469 L 242.605469 180.980469 L 243.898438 180.980469 L 245.40625 179.480469 Z M 241.53125 179.480469 L 240.023438 180.980469 L 241.3125 180.980469 L 242.820312 179.480469 Z M 233.78125 179.480469 L 232.273438 180.980469 L 233.566406 180.980469 L 235.070312 179.480469 Z M 215.699219 179.480469 L 214.191406 180.980469 L 215.480469 180.980469 L 216.988281 179.480469 Z M 213.007812 179.480469 L 213.007812 180.875 L 214.40625 179.480469 Z M 246.695312 179.480469 L 245.1875 180.980469 L 246.480469 180.980469 L 247.988281 179.480469 Z M 218.28125 179.480469 L 216.773438 180.980469 L 218.066406 180.980469 L 219.574219 179.480469 Z M 223.445312 179.480469 L 221.941406 180.980469 L 223.230469 180.980469 L 224.738281 179.480469 Z M 226.03125 179.480469 L 224.523438 180.980469 L 225.816406 180.980469 L 227.320312 179.480469 Z M 220.863281 179.480469 L 219.355469 180.980469 L 220.648438 180.980469 L 222.15625 179.480469 L 220.863281 179.480469 " fill-opacity="1" fill-rule="evenodd"/>
  </g>
  <path fill="#004aad" d="M 212.574219 180.980469 L 211.296875 180.980469 C 211.425781 180.761719 211.5 180.503906 211.5 180.230469 C 211.5 179.957031 211.425781 179.703125 211.296875 179.480469 L 212.574219 179.480469 Z M 212.574219 179.269531 L 209.5625 179.269531 C 209.445312 179.269531 209.347656 179.363281 209.347656 179.480469 L 209.347656 180.980469 C 209.347656 181.101562 209.445312 181.195312 209.5625 181.195312 L 212.574219 181.195312 C 212.695312 181.195312 212.792969 181.101562 212.792969 180.980469 L 212.792969 179.480469 C 212.792969 179.363281 212.695312 179.269531 212.574219 179.269531 " fill-opacity="1" fill-rule="evenodd"/>
  <path fill="#ffffff" d="M 209.992188 178.945312 C 209.277344 178.945312 208.699219 179.523438 208.699219 180.230469 C 208.699219 180.941406 209.277344 181.515625 209.992188 181.515625 C 210.707031 181.515625 211.285156 180.941406 211.285156 180.230469 C 211.285156 179.523438 210.707031 178.945312 209.992188 178.945312 " fill-opacity="1" fill-rule="nonzero"/>
  <path fill="#004aad" d="M 209.992188 179.589844 C 209.636719 179.589844 209.347656 179.878906 209.347656 180.230469 C 209.347656 180.585938 209.636719 180.875 209.992188 180.875 C 210.347656 180.875 210.640625 180.585938 210.640625 180.230469 C 210.640625 179.878906 210.347656 179.589844 209.992188 179.589844 Z M 209.992188 181.304688 C 209.398438 181.304688 208.917969 180.824219 208.917969 180.230469 C 208.917969 179.640625 209.398438 179.160156 209.992188 179.160156 C 210.585938 179.160156 211.070312 179.640625 211.070312 180.230469 C 211.070312 180.824219 210.585938 181.304688 209.992188 181.304688 Z M 209.992188 178.945312 C 209.277344 178.945312 208.699219 179.523438 208.699219 180.230469 C 208.699219 180.941406 209.277344 181.515625 209.992188 181.515625 C 210.707031 181.515625 211.285156 180.941406 211.285156 180.230469 C 211.285156 179.523438 210.707031 178.945312 209.992188 178.945312 " fill-opacity="1" fill-rule="evenodd"/>
  <path fill="#ffffff" d="M 209.992188 179.804688 C 209.753906 179.804688 209.5625 179.996094 209.5625 180.230469 C 209.5625 180.46875 209.753906 180.660156 209.992188 180.660156 C 210.230469 180.660156 210.421875 180.46875 210.421875 180.230469 C 210.421875 179.996094 210.230469 179.804688 209.992188 179.804688 " fill-opacity="1" fill-rule="nonzero"/>
  <path fill="#004aad" d="M 247.449219 181.089844 L 247.449219 189.230469 L 247.878906 189.230469 L 247.878906 181.089844 L 247.449219 181.089844 " fill-opacity="1" fill-rule="nonzero"/>
  <path fill="#ffffff" d="M 247.664062 187.945312 C 247.425781 187.945312 247.234375 188.136719 247.234375 188.375 L 247.234375 189.230469 C 247.234375 189.46875 247.425781 189.660156 247.664062 189.660156 C 247.902344 189.660156 248.09375 189.46875 248.09375 189.230469 L 248.09375 188.375 C 248.09375 188.136719 247.902344 187.945312 247.664062 187.945312 " fill-opacity="1" fill-rule="nonzero"/>
  <path fill="#004aad" d="M 247.664062 188.160156 C 247.785156 188.160156 247.878906 188.253906 247.878906 188.375 L 247.878906 188.585938 L 247.449219 188.585938 L 247.449219 188.375 C 247.449219 188.253906 247.546875 188.160156 247.664062 188.160156 Z M 247.664062 187.945312 C 247.425781 187.945312 247.234375 188.136719 247.234375 188.375 L 247.234375 189.230469 C 247.234375 189.46875 247.425781 189.660156 247.664062 189.660156 C 247.902344 189.660156 248.09375 189.46875 248.09375 189.230469 L 248.09375 188.375 C 248.09375 188.136719 247.902344 187.945312 247.664062 187.945312 " fill-opacity="1" fill-rule="evenodd"/>
  <g clip-path="url(#2ff11bc772)">
    <path fill="#ffffff" d="M 248.09375 188.800781 L 247.234375 188.800781 C 246.996094 188.800781 246.804688 188.992188 246.804688 189.230469 L 246.804688 190.085938 C 246.804688 190.324219 246.996094 190.515625 247.234375 190.515625 L 248.09375 190.515625 C 248.332031 190.515625 248.527344 190.324219 248.527344 190.085938 L 248.527344 189.230469 C 248.527344 188.992188 248.332031 188.800781 248.09375 188.800781 " fill-opacity="1" fill-rule="nonzero"/>
    <path fill="#004aad" d="M 248.3125 190.085938 C 248.3125 190.207031 248.214844 190.300781 248.09375 190.300781 L 247.234375 190.300781 C 247.117188 190.300781 247.019531 190.207031 247.019531 190.085938 L 247.019531 189.230469 C 247.019531 189.113281 247.117188 189.015625 247.234375 189.015625 L 248.09375 189.015625 C 248.214844 189.015625 248.3125 189.113281 248.3125 189.230469 Z M 248.09375 188.800781 L 247.234375 188.800781 C 246.996094 188.800781 246.804688 188.992188 246.804688 189.230469 L 246.804688 190.085938 C 246.804688 190.324219 246.996094 190.515625 247.234375 190.515625 L 248.09375 190.515625 C 248.332031 190.515625 248.527344 190.324219 248.527344 190.085938 L 248.527344 189.230469 C 248.527344 188.992188 248.332031 188.800781 248.09375 188.800781 " fill-opacity="1" fill-rule="evenodd"/>
  </g>
  <path fill="#ffffff" d="M 247.878906 180.019531 L 247.449219 180.019531 C 247.210938 180.019531 247.019531 180.210938 247.019531 180.445312 L 247.019531 181.089844 C 247.019531 181.324219 247.210938 181.515625 247.449219 181.515625 L 247.878906 181.515625 C 248.117188 181.515625 248.3125 181.324219 248.3125 181.089844 L 248.3125 180.445312 C 248.3125 180.210938 248.117188 180.019531 247.878906 180.019531 " fill-opacity="1" fill-rule="nonzero"/>
  <path fill="#004aad" d="M 248.09375 181.089844 C 248.09375 181.207031 248 181.304688 247.878906 181.304688 L 247.449219 181.304688 C 247.332031 181.304688 247.234375 181.207031 247.234375 181.089844 L 247.234375 180.445312 C 247.234375 180.328125 247.332031 180.230469 247.449219 180.230469 L 247.878906 180.230469 C 248 180.230469 248.09375 180.328125 248.09375 180.445312 Z M 247.878906 180.019531 L 247.449219 180.019531 C 247.210938 180.019531 247.019531 180.210938 247.019531 180.445312 L 247.019531 181.089844 C 247.019531 181.324219 247.210938 181.515625 247.449219 181.515625 L 247.878906 181.515625 C 248.117188 181.515625 248.3125 181.324219 248.3125 181.089844 L 248.3125 180.445312 C 248.3125 180.210938 248.117188 180.019531 247.878906 180.019531 " fill-opacity="1" fill-rule="evenodd"/>
  <path fill="#004aad" d="M 296.691406 156.46875 C 296.277344 156.40625 295.636719 156.308594 295.125 156.230469 C 295.125 154.945312 295.125 153.675781 295.125 152.460938 C 295.363281 152.292969 295.523438 152.015625 295.523438 151.699219 L 295.523438 146.472656 C 295.523438 146.160156 295.363281 145.878906 295.125 145.710938 C 295.125 144.109375 295.125 143.058594 295.125 142.867188 C 295.125 142.582031 294.695312 142.273438 294 141.96875 C 293.878906 141.671875 293.605469 141.441406 293.265625 141.398438 L 291.496094 141.15625 C 289.429688 140.632812 286.910156 140.246094 285.144531 140.246094 C 283.375 140.246094 280.855469 140.632812 278.789062 141.15625 L 277.019531 141.398438 C 276.679688 141.441406 276.410156 141.671875 276.285156 141.96875 C 275.589844 142.273438 275.164062 142.582031 275.164062 142.867188 C 275.164062 143.058594 275.164062 144.109375 275.164062 145.710938 C 274.921875 145.878906 274.761719 146.160156 274.761719 146.472656 L 274.761719 151.699219 C 274.761719 152.015625 274.921875 152.292969 275.164062 152.460938 C 275.164062 153.675781 275.164062 154.945312 275.164062 156.230469 C 274.648438 156.308594 274.007812 156.40625 273.59375 156.46875 C 272.800781 156.589844 272.664062 157.875 272.664062 157.875 L 275.164062 157.496094 C 275.164062 165.253906 275.164062 173.195312 275.164062 173.195312 L 274.359375 178.195312 C 274.359375 178.195312 274.804688 186.230469 275.964844 187.839844 C 277.121094 189.445312 283.183594 189.714844 285.144531 189.714844 C 287.101562 189.714844 293.164062 189.445312 294.320312 187.839844 C 295.480469 186.230469 295.925781 178.195312 295.925781 178.195312 L 295.125 173.195312 C 295.125 173.195312 295.125 165.253906 295.125 157.496094 L 297.621094 157.875 C 297.621094 157.875 297.484375 156.589844 296.691406 156.46875 Z M 293.992188 157.925781 C 293.992188 157.925781 293.945312 162.820312 293.910156 166.976562 L 291.738281 166.976562 C 291.84375 164.269531 293.992188 157.925781 293.992188 157.925781 Z M 292.777344 154.832031 C 293.667969 156.023438 291.472656 162.390625 291.472656 162.390625 C 291.472656 162.390625 288.203125 161.558594 285.113281 161.558594 C 282.027344 161.558594 278.757812 162.390625 278.757812 162.390625 C 278.757812 162.390625 276.5625 156.023438 277.453125 154.832031 C 278.34375 153.640625 280.421875 153.34375 285.113281 153.34375 C 289.808594 153.34375 291.886719 153.640625 292.777344 154.832031 Z M 276.238281 157.925781 C 276.238281 157.925781 278.386719 164.269531 278.492188 166.976562 L 276.320312 166.976562 C 276.285156 162.820312 276.238281 157.925781 276.238281 157.925781 Z M 276.359375 172.390625 C 276.359375 171.695312 276.34375 169.84375 276.328125 167.6875 L 278.484375 167.6875 C 278.378906 170.621094 277.828125 178.570312 277.546875 179.476562 C 277.25 180.429688 276.359375 174.476562 276.359375 172.390625 Z M 291.367188 184.042969 C 290.566406 184.847656 287.789062 185.519531 285.113281 185.519531 C 282.441406 185.519531 279.664062 184.847656 278.863281 184.042969 C 278.058594 183.242188 278.816406 178.015625 278.816406 178.015625 C 278.816406 178.015625 282.933594 178.867188 285.113281 178.867188 C 287.296875 178.867188 291.410156 178.015625 291.410156 178.015625 C 291.410156 178.015625 292.167969 183.242188 291.367188 184.042969 Z M 292.683594 179.476562 C 292.402344 178.570312 291.851562 170.621094 291.746094 167.6875 L 293.902344 167.6875 C 293.886719 169.84375 293.871094 171.695312 293.871094 172.390625 C 293.871094 174.476562 292.980469 180.429688 292.683594 179.476562 Z M 292.683594 179.476562 " fill-opacity="1" fill-rule="nonzero"/>
  <path fill="#004aad" d="M 283.714844 156.699219 L 283.867188 156.546875 L 286.324219 159.007812 L 286.171875 159.160156 Z M 283.714844 156.699219 " fill-opacity="1" fill-rule="nonzero"/>
  <path fill="#004aad" d="M 284.398438 156.015625 L 284.554688 155.859375 L 287.007812 158.320312 L 286.855469 158.476562 Z M 284.398438 156.015625 " fill-opacity="1" fill-rule="nonzero"/>
  <path fill="#004aad" d="M 282.738281 155.035156 L 282.890625 154.878906 L 287.988281 159.988281 L 287.832031 160.140625 Z M 282.738281 155.035156 " fill-opacity="1" fill-rule="nonzero"/>
  <path fill="#004aad" d="M 283.714844 181.226562 L 283.867188 181.070312 L 286.324219 183.53125 L 286.171875 183.6875 Z M 283.714844 181.226562 " fill-opacity="1" fill-rule="nonzero"/>
  <path fill="#004aad" d="M 284.398438 180.539062 L 284.550781 180.386719 L 287.007812 182.847656 L 286.855469 183 Z M 284.398438 180.539062 " fill-opacity="1" fill-rule="nonzero"/>
  <path fill="#004aad" d="M 282.738281 179.558594 L 282.890625 179.40625 L 287.988281 184.511719 L 287.832031 184.664062 Z M 282.738281 179.558594 " fill-opacity="1" fill-rule="nonzero"/>
</svg>